<svg xmlns="http://www.w3.org/2000/svg" width="235" height="156" viewBox="0 0 235 156" version="1.1"><path d="M 135.500 11 C 133.870 11.701, 133.812 11.872, 135.191 11.930 C 136.121 11.968, 137.160 11.550, 137.500 11 C 138.211 9.850, 138.176 9.850, 135.500 11 M 126.221 12.558 C 124.997 13.415, 123.622 13.885, 123.165 13.602 C 122.708 13.319, 122.333 13.668, 122.333 14.377 C 122.333 15.086, 122.933 15.667, 123.667 15.667 C 124.400 15.667, 125 15.202, 125 14.633 C 125 14.015, 125.482 14.082, 126.200 14.800 C 126.860 15.460, 127.873 15.993, 128.450 15.985 C 129.028 15.976, 128.825 15.533, 128 15 C 126.752 14.193, 126.836 14.015, 128.500 13.936 C 129.600 13.885, 129.935 13.614, 129.244 13.336 C 128.553 13.057, 128.242 12.418, 128.553 11.915 C 129.358 10.612, 128.765 10.776, 126.221 12.558 M 139.603 12.167 C 139.886 12.625, 139.604 13, 138.976 13 C 138.347 13, 138.021 13.563, 138.250 14.250 C 138.934 16.301, 141.492 15.666, 141.605 13.417 C 141.663 12.271, 141.121 11.333, 140.399 11.333 C 139.678 11.333, 139.320 11.708, 139.603 12.167 M 139.500 14 C 139.160 14.550, 139.359 15, 139.941 15 C 140.523 15, 141 14.550, 141 14 C 141 13.450, 140.802 13, 140.559 13 C 140.316 13, 139.840 13.450, 139.500 14 M 144 13.590 C 144 13.681, 144.761 14.373, 145.692 15.128 C 146.842 16.060, 147.143 16.099, 146.633 15.250 C 145.710 13.714, 147.196 13.596, 148.687 15.087 C 149.470 15.870, 149.989 15.827, 150.542 14.933 C 151.019 14.160, 150.899 13.945, 150.224 14.362 C 149.627 14.731, 148.873 14.604, 148.549 14.080 C 148.088 13.334, 144 12.894, 144 13.590 M 115.037 19.115 C 111.220 22.763, 112.565 24.955, 116.918 22.180 C 119.353 20.628, 119.422 20.633, 118.128 22.267 C 116.952 23.751, 116.971 24, 118.261 24 C 120.329 24, 121.179 20.093, 119.600 17.839 C 118.374 16.089, 118.133 16.156, 115.037 19.115 M 115.677 19.804 C 113.282 22.451, 113.606 23.304, 116.330 21.520 C 117.611 20.680, 119.023 20.332, 119.467 20.746 C 119.911 21.161, 120.072 20.853, 119.824 20.063 C 119.135 17.858, 117.529 17.758, 115.677 19.804 M 153.583 18.865 C 153.244 19.414, 153.987 20.620, 155.233 21.546 L 157.500 23.228 155.249 22.707 C 154.010 22.421, 153.249 22.595, 153.558 23.093 C 153.866 23.592, 154.766 24, 155.559 24 C 156.352 24, 157 24.810, 157 25.800 C 157 27.937, 158.853 30, 160.773 30 C 161.761 30, 161.569 29.268, 160.086 27.382 C 158.954 25.943, 158.254 24.399, 158.530 23.951 C 158.807 23.503, 158.186 22.544, 157.151 21.818 C 156.116 21.093, 155.246 20.125, 155.218 19.667 C 155.131 18.255, 154.233 17.814, 153.583 18.865 M 69.500 23 C 67.789 23.735, 67.941 23.870, 70.550 23.930 C 72.227 23.968, 74.140 24.540, 74.800 25.200 C 75.460 25.860, 76 26.022, 76 25.560 C 76 24.705, 72.909 22.032, 72 22.102 C 71.725 22.123, 70.600 22.527, 69.500 23 M 111 25 C 110.099 25.582, 109.975 25.975, 110.691 25.985 C 111.346 25.993, 112.160 25.550, 112.500 25 C 113.267 23.758, 112.921 23.758, 111 25 M 53.500 27 C 51.741 28.944, 51.753 29, 53.952 29 C 55.585 29, 56.048 29.431, 55.618 30.552 C 55.291 31.406, 55.439 31.847, 55.948 31.532 C 57.558 30.537, 56.737 26.894, 55.035 27.478 C 54.090 27.803, 54.245 27.428, 55.441 26.502 C 56.509 25.676, 56.916 25, 56.346 25 C 55.776 25, 54.495 25.900, 53.500 27 M 153.079 27.583 C 153.127 28.748, 153.364 28.985, 153.683 28.188 C 153.972 27.466, 153.936 26.603, 153.604 26.271 C 153.272 25.939, 153.036 26.529, 153.079 27.583 M 78.500 28 C 78.840 28.550, 79.793 29, 80.618 29 C 81.443 29, 81.859 29.419, 81.543 29.931 C 81.226 30.443, 81.494 31.187, 82.138 31.585 C 82.912 32.063, 83.040 31.873, 82.515 31.025 C 82.013 30.211, 82.167 29.889, 82.936 30.145 C 83.604 30.368, 84.116 30.876, 84.075 31.275 C 84.034 31.674, 84 32.675, 84 33.500 C 84 34.325, 83.213 35.007, 82.250 35.015 C 80.754 35.028, 80.718 35.172, 82 36 C 82.825 36.533, 83.013 36.976, 82.417 36.985 C 81.821 36.993, 81.333 37.675, 81.333 38.500 C 81.333 40.621, 82.993 40.376, 83.032 38.250 C 83.060 36.720, 83.216 36.688, 84.282 38 C 86.103 40.242, 88.852 40.150, 88.255 37.868 C 87.987 36.840, 87.369 36, 86.883 36 C 86.398 36, 86 35.523, 86 34.941 C 86 34.359, 86.520 34.203, 87.155 34.595 C 87.876 35.041, 88.037 34.869, 87.585 34.138 C 87.187 33.494, 86.366 33.274, 85.761 33.648 C 85.057 34.083, 84.886 33.740, 85.285 32.700 C 85.703 31.609, 84.966 30.400, 83.050 29.036 C 80.041 26.893, 77.452 26.304, 78.500 28 M 109.500 28 C 109.160 28.550, 109.359 29, 109.941 29 C 110.523 29, 111 28.550, 111 28 C 111 27.450, 110.802 27, 110.559 27 C 110.316 27, 109.840 27.450, 109.500 28 M 110.500 29.331 C 106.853 33.277, 107.894 40.249, 111.579 36.564 C 112.439 35.704, 112.661 35, 112.071 35 C 111.482 35, 111 34.523, 111 33.941 C 111 33.359, 111.338 33.090, 111.750 33.344 C 112.162 33.598, 112.554 32.274, 112.619 30.403 C 112.685 28.531, 112.685 27.038, 112.619 27.083 C 112.554 27.129, 111.600 28.141, 110.500 29.331 M 52.500 31 C 52.840 31.550, 53.316 32, 53.559 32 C 53.802 32, 54 31.550, 54 31 C 54 30.450, 53.523 30, 52.941 30 C 52.359 30, 52.160 30.450, 52.500 31 M 109 32 C 109 32.550, 109.477 33, 110.059 33 C 110.641 33, 110.840 32.550, 110.500 32 C 110.160 31.450, 109.684 31, 109.441 31 C 109.198 31, 109 31.450, 109 32 M 109 35.559 C 109 36.416, 109.457 36.835, 110.016 36.490 C 110.575 36.144, 110.774 35.443, 110.457 34.931 C 109.600 33.544, 109 33.802, 109 35.559 M 84 35.819 C 84 37.027, 85.897 38.436, 86.591 37.743 C 86.842 37.491, 86.362 36.716, 85.524 36.020 C 84.574 35.231, 84 35.155, 84 35.819 M 161.223 37.428 C 161.334 38.763, 161.750 39.654, 162.149 39.408 C 163.102 38.819, 162.799 35, 161.798 35 C 161.372 35, 161.113 36.093, 161.223 37.428 M 111.711 38.999 C 111.423 40.098, 111.500 41.191, 111.882 41.427 C 112.263 41.663, 112.666 40.763, 112.777 39.428 C 113.020 36.488, 112.429 36.251, 111.711 38.999 M 47.649 39.758 C 47.155 40.558, 46.660 48.969, 47.032 50.250 C 47.152 50.663, 47.306 51.413, 47.375 51.917 C 47.633 53.810, 48.587 53.838, 48.728 51.957 C 48.809 50.881, 48.427 50, 47.879 50 C 47.331 50, 47.193 49.497, 47.573 48.882 C 48.169 47.917, 48.834 38.997, 48.309 38.999 C 48.204 39, 47.907 39.341, 47.649 39.758 M 109 41.167 C 109 42.358, 109.313 43.020, 109.696 42.638 C 110.776 41.557, 110.928 39, 109.912 39 C 109.410 39, 109 39.975, 109 41.167 M 109.526 44.358 C 108.096 45.403, 107.982 45.871, 109.003 46.502 C 109.866 47.035, 110.067 46.918, 109.595 46.155 C 109.203 45.520, 109.386 45, 110.001 45 C 110.678 45, 110.937 46.162, 110.657 47.941 C 110.402 49.558, 110.719 51.601, 111.362 52.480 C 112.310 53.777, 112.526 53.142, 112.503 49.110 C 112.470 43.295, 112.001 42.547, 109.526 44.358 M 84.112 48.964 C 82.695 49.898, 81.249 53.435, 81.541 55.250 C 81.725 56.388, 81.175 57, 79.971 57 C 78.952 57, 77.840 57.450, 77.500 58 C 77.160 58.550, 77.771 59, 78.858 59 C 79.944 59, 81.022 59.337, 81.253 59.750 C 81.483 60.163, 81.541 59.952, 81.380 59.282 C 81.219 58.612, 81.525 57.794, 82.060 57.463 C 82.595 57.132, 82.731 56.373, 82.362 55.776 C 81.971 55.144, 82.154 54.977, 82.802 55.378 C 83.413 55.755, 83.641 56.837, 83.309 57.782 C 82.806 59.214, 82.938 59.283, 84.103 58.200 C 84.871 57.485, 85.556 56.473, 85.625 55.950 C 85.694 55.428, 85.841 54.888, 85.952 54.750 C 86.062 54.612, 86.309 53.678, 86.499 52.673 C 86.735 51.427, 86.392 51.019, 85.423 51.391 C 84.640 51.692, 84 51.449, 84 50.852 C 84 50.254, 85.048 49.967, 86.333 50.213 C 87.650 50.464, 88.667 50.173, 88.667 49.544 C 88.667 48.400, 85.567 48.005, 84.112 48.964 M 153.948 48.968 C 154.970 49.600, 154.953 49.867, 153.863 50.300 C 152.895 50.685, 152.862 50.865, 153.750 50.921 C 154.438 50.964, 155 51.477, 155 52.059 C 155 52.641, 154.625 52.886, 154.167 52.603 C 153.708 52.320, 153.333 52.743, 153.333 53.544 C 153.333 54.345, 153.783 55, 154.333 55 C 154.883 55, 155.003 55.330, 154.600 55.733 C 154.197 56.137, 151.984 56.484, 149.683 56.505 C 145.724 56.541, 145.498 56.703, 145.469 59.521 C 145.452 61.160, 145.037 63.175, 144.547 64 C 143.919 65.057, 144.247 64.983, 145.657 63.750 C 146.757 62.788, 148.320 62, 149.129 62 C 149.938 62, 151.144 61.456, 151.810 60.790 C 152.756 59.844, 152.527 59.291, 150.760 58.249 L 148.500 56.917 151 57.573 C 154.754 58.560, 154.796 58.561, 154.856 57.696 C 154.887 57.254, 155.944 56.015, 157.206 54.944 C 158.578 53.779, 158.849 53.221, 157.881 53.555 C 156.810 53.924, 156.081 53.418, 155.725 52.057 C 155.148 49.849, 156.500 49.173, 157.338 51.250 C 157.630 51.975, 157.875 51.740, 157.921 50.691 C 157.964 49.696, 158.457 49.165, 159.016 49.510 C 159.575 49.856, 159.728 50.670, 159.356 51.319 C 158.984 51.969, 159.065 52.149, 159.535 51.721 C 161.657 49.790, 160.572 48.493, 156.709 48.339 C 154.381 48.246, 153.211 48.512, 153.948 48.968 M 82.667 52.730 C 81.648 54.378, 83.966 55.451, 85.337 53.966 C 86.221 53.009, 86.221 52.863, 85.335 53.360 C 84.695 53.719, 83.990 53.469, 83.768 52.805 C 83.475 51.925, 83.177 51.905, 82.667 52.730 M 50.884 58.117 C 52.439 59.846, 53.112 60.015, 54.639 59.064 C 56.269 58.048, 56.191 57.990, 54.008 58.596 C 51.677 59.244, 51.612 59.166, 53.008 57.394 C 54.350 55.691, 54.342 55.623, 52.926 56.726 C 51.889 57.534, 50.949 57.621, 50.171 56.982 C 49.521 56.448, 49.842 56.959, 50.884 58.117 M 119.926 56.389 C 119.147 57.555, 119.321 61.080, 120.184 61.614 C 120.955 62.090, 121.127 61.774, 120.701 60.664 C 120.243 59.470, 120.602 59, 121.972 59 C 124.903 59, 125.295 57.290, 122.488 56.753 C 121.120 56.491, 119.967 56.327, 119.926 56.389 M 146.346 59.261 C 146.450 60.993, 146.855 61.534, 147.592 60.923 C 148.193 60.425, 149.042 60.351, 149.479 60.759 C 149.916 61.166, 150.088 60.904, 149.862 60.175 C 149.635 59.446, 149.062 58.922, 148.587 59.010 C 148.112 59.099, 147.379 58.613, 146.958 57.932 C 146.495 57.183, 146.253 57.709, 146.346 59.261 M 54.531 60.950 C 54.208 61.472, 54.969 62.397, 56.222 63.005 C 58.311 64.019, 58.351 63.990, 56.697 62.656 C 55.342 61.564, 55.218 61.072, 56.197 60.680 C 57.080 60.326, 57.116 60.132, 56.309 60.079 C 55.654 60.036, 54.854 60.427, 54.531 60.950 M 76.500 61 C 76.160 61.550, 76.610 62, 77.500 62 C 78.390 62, 78.840 61.550, 78.500 61 C 78.160 60.450, 77.710 60, 77.500 60 C 77.290 60, 76.840 60.450, 76.500 61 M 123 61.393 C 123 61.609, 123.698 62.054, 124.552 62.382 C 125.442 62.723, 125.843 62.555, 125.493 61.989 C 124.906 61.038, 123 60.583, 123 61.393 M 67 64.393 C 67 64.609, 67.675 65.045, 68.500 65.362 C 69.325 65.678, 70 65.501, 70 64.969 C 70 64.436, 69.325 64, 68.500 64 C 67.675 64, 67 64.177, 67 64.393 M 137.613 65.183 C 137.902 65.650, 138.557 65.774, 139.069 65.457 C 140.377 64.649, 140.230 64.333, 138.544 64.333 C 137.743 64.333, 137.324 64.716, 137.613 65.183 M 186.433 91.817 C 186.392 104.479, 186.597 109.204, 186.961 104 C 187.466 96.796, 187.635 96.186, 188.066 100 C 188.346 102.475, 188.390 97.300, 188.164 88.500 C 187.938 79.700, 187.472 72.193, 187.127 71.817 C 186.782 71.441, 186.470 80.441, 186.433 91.817 M 189.272 76 C 189.272 78.475, 189.467 79.487, 189.706 78.250 C 189.944 77.013, 189.944 74.987, 189.706 73.750 C 189.467 72.513, 189.272 73.525, 189.272 76 M 63.792 74.726 C 64.827 75.101, 64.836 75.523, 63.840 76.847 C 62.792 78.240, 62.817 78.303, 63.998 77.250 C 64.769 76.563, 67.185 76, 69.367 76 C 74.632 76, 73.709 75.388, 67.500 74.762 C 64.750 74.485, 63.081 74.469, 63.792 74.726 M 75.441 75.563 C 74.057 76.677, 73.860 77.276, 74.756 77.648 C 75.447 77.936, 75.758 78.582, 75.447 79.085 C 75.136 79.588, 75.359 80, 75.941 80 C 76.523 80, 77 79.362, 77 78.583 C 77 77.804, 77.563 76.940, 78.250 76.662 C 79.211 76.274, 79.198 76.140, 78.191 76.079 C 77.471 76.036, 77.160 75.550, 77.500 75 C 78.384 73.570, 77.676 73.763, 75.441 75.563 M 80 76.239 C 80 77.208, 79.523 78, 78.941 78 C 78.359 78, 78.190 78.498, 78.566 79.107 C 78.942 79.715, 79.531 79.828, 79.875 79.357 C 80.796 78.094, 83 77.842, 83 79 C 83 79.550, 83.389 80, 83.863 80 C 84.338 80, 84.663 78.987, 84.584 77.750 C 84.506 76.513, 84.850 75.213, 85.349 74.862 C 85.849 74.510, 84.849 74.281, 83.129 74.351 C 80.857 74.444, 80 74.961, 80 76.239 M 108.529 74.750 C 94.615 74.944, 87.212 75.421, 86.529 76.168 C 85.816 76.948, 85.838 77.105, 86.600 76.680 C 87.206 76.343, 97.443 76.019, 109.350 75.961 C 121.922 75.900, 131 75.467, 131 74.928 C 131 74.418, 130.662 74.103, 130.250 74.229 C 129.838 74.354, 120.063 74.589, 108.529 74.750 M 180.832 76.469 C 180.214 77.826, 179.374 78.731, 178.967 78.480 C 178.560 78.228, 177.613 78.805, 176.863 79.761 C 175.659 81.297, 175.686 81.355, 177.092 80.259 C 177.968 79.576, 178.985 79.318, 179.352 79.686 C 180.178 80.511, 183.003 76.815, 182.352 75.761 C 182.094 75.342, 182.359 75, 182.941 75 C 184.310 75, 184.296 76.304, 182.913 77.687 C 182.130 78.470, 182.173 78.989, 183.067 79.542 C 183.832 80.014, 184.055 79.899, 183.648 79.240 C 183.285 78.652, 183.521 77.993, 184.174 77.775 C 185.573 77.309, 184.553 74, 183.010 74 C 182.431 74, 181.451 75.111, 180.832 76.469 M 81.469 76.050 C 81.101 76.646, 81.070 77.403, 81.400 77.733 C 81.730 78.063, 82.007 77.696, 82.015 76.917 C 82.028 75.750, 82.202 75.765, 83 77 C 83.582 77.901, 83.975 78.025, 83.985 77.309 C 84.006 75.625, 82.269 74.756, 81.469 76.050 M 129.333 78.571 C 129.333 79.252, 129.933 79.579, 130.667 79.298 C 131.400 79.016, 132 78.459, 132 78.060 C 132 77.660, 131.400 77.333, 130.667 77.333 C 129.933 77.333, 129.333 77.890, 129.333 78.571 M 63.422 80.344 C 63.138 81.083, 63.045 85.020, 63.214 89.094 L 63.522 96.500 64.011 87.748 C 64.498 79.026, 64.400 77.794, 63.422 80.344 M 172.811 82.750 C 171.474 84.312, 171.493 84.662, 172.990 86 C 175.599 88.334, 176.518 88.082, 176.644 84.999 C 176.733 82.821, 176.399 82.294, 175.216 82.747 C 174.202 83.137, 173.920 82.938, 174.395 82.170 C 175.483 80.409, 174.511 80.765, 172.811 82.750 M 189.300 86 C 189.300 89.025, 189.487 90.263, 189.716 88.750 C 189.945 87.237, 189.945 84.763, 189.716 83.250 C 189.487 81.737, 189.300 82.975, 189.300 86 M 173 83.378 C 173 83.585, 173.787 84.373, 174.750 85.128 C 176.336 86.371, 176.371 86.336, 175.128 84.750 C 173.821 83.084, 173 82.555, 173 83.378 M 168.530 85.951 C 168.174 86.528, 168.021 87.033, 168.191 87.074 C 170.075 87.527, 173.280 87.976, 172.939 87.740 C 172.698 87.572, 171.753 86.865, 170.839 86.168 C 169.716 85.313, 168.968 85.243, 168.530 85.951 M 165 88.500 C 165 89.325, 164.518 89.888, 163.929 89.750 C 163.340 89.612, 161.782 90.866, 160.466 92.536 L 158.073 95.573 162.037 95.618 C 164.657 95.649, 166 95.221, 166 94.357 C 166 93.357, 165.379 93.286, 163.361 94.053 C 159.862 95.383, 159.504 94.789, 162.059 91.892 C 163.641 90.097, 164.025 89.950, 163.595 91.302 C 163.193 92.568, 163.391 92.873, 164.261 92.327 C 164.943 91.900, 166.400 91.622, 167.500 91.710 C 169.245 91.850, 169.265 91.803, 167.657 91.344 C 166.428 90.993, 165.981 90.182, 166.314 88.909 C 166.588 87.859, 166.405 87, 165.906 87 C 165.408 87, 165 87.675, 165 88.500 M 167 93.941 C 167 94.459, 167.375 95.114, 167.833 95.397 C 168.292 95.680, 168.667 95.257, 168.667 94.456 C 168.667 93.655, 168.292 93, 167.833 93 C 167.375 93, 167 93.423, 167 93.941 M 155.500 95 C 155.160 95.550, 155.359 96, 155.941 96 C 156.523 96, 157 95.550, 157 95 C 157 94.450, 156.802 94, 156.559 94 C 156.316 94, 155.840 94.450, 155.500 95 M 151.250 98.559 C 150.563 99.305, 150 100.411, 150 101.017 C 150 101.622, 149.550 101.840, 149 101.500 C 148.450 101.160, 148 101.118, 148 101.406 C 148 101.694, 148.873 102.397, 149.939 102.968 C 151.324 103.709, 152.083 103.675, 152.594 102.848 C 153.038 102.130, 152.871 101.962, 152.155 102.405 C 150.710 103.297, 150.686 102.455, 152.081 99.849 C 153.396 97.392, 152.955 96.708, 151.250 98.559 M 129.158 102 C 129.158 103.375, 129.385 103.938, 129.662 103.250 C 129.940 102.563, 129.940 101.438, 129.662 100.750 C 129.385 100.063, 129.158 100.625, 129.158 102 M 145.603 102.833 C 145.320 103.292, 145.723 103.667, 146.500 103.667 C 147.277 103.667, 147.680 103.292, 147.397 102.833 C 147.114 102.375, 146.710 102, 146.500 102 C 146.290 102, 145.886 102.375, 145.603 102.833 M 131.058 107.083 C 131.089 108.963, 131.511 112.300, 131.996 114.500 C 132.672 117.574, 132.746 116.880, 132.315 111.500 C 131.718 104.050, 130.962 101.394, 131.058 107.083 M 142.161 109.300 C 143.183 111.210, 144.245 110.940, 144.576 108.685 C 144.677 107.994, 143.950 107.429, 142.960 107.429 C 141.510 107.429, 141.354 107.794, 142.161 109.300 M 147 113 C 148.375 113.440, 148.938 113.845, 148.250 113.900 C 147.563 113.955, 147 114.505, 147 115.122 C 147 115.902, 147.455 115.867, 148.489 115.009 C 150.400 113.423, 149.503 111.972, 146.691 112.100 C 144.651 112.192, 144.673 112.255, 147 113 M 151.356 112.681 C 151.728 113.330, 151.575 114.144, 151.016 114.490 C 149.674 115.319, 149.734 116.255, 151.264 118.347 C 152.373 119.863, 152.527 119.650, 152.514 116.621 C 152.506 114.721, 152.090 112.792, 151.590 112.333 C 151.066 111.854, 150.967 112.002, 151.356 112.681 M 187.618 120 C 187.199 124.675, 187.023 132.100, 187.227 136.500 C 187.548 143.426, 187.645 142.821, 187.949 132 C 188.212 122.637, 188.476 120.629, 189 124 C 189.632 128.064, 189.706 128.161, 189.762 125 C 189.797 123.075, 189.499 119.250, 189.102 116.500 C 188.379 111.503, 188.379 111.505, 187.618 120 M 130.195 117.500 C 130.215 119.150, 130.439 119.704, 130.693 118.731 C 130.947 117.758, 130.930 116.408, 130.656 115.731 C 130.382 115.054, 130.175 115.850, 130.195 117.500 M 63.992 128.205 C 63.721 132.992, 63.858 136.550, 64.295 136.110 C 64.732 135.670, 64.953 131.753, 64.786 127.405 L 64.483 119.500 63.992 128.205 M 155.299 121.860 C 156.117 122.846, 156.535 122.895, 156.820 122.040 C 157.061 121.318, 157.777 121.664, 158.663 122.930 C 159.461 124.068, 160.763 125, 161.557 125 C 163.435 125, 163.430 122.379, 161.551 121.658 C 160.533 121.267, 160.286 121.582, 160.721 122.715 C 161.133 123.789, 160.949 124.087, 160.170 123.605 C 159.526 123.207, 159 122.281, 159 121.547 C 159 120.762, 158.005 120.271, 156.586 120.356 C 154.670 120.470, 154.404 120.781, 155.299 121.860 M 185.201 127.321 C 184.996 135.303, 183.438 139.038, 181.232 136.832 C 180.600 136.200, 179.577 136.137, 178.622 136.672 C 177.245 137.442, 177.295 137.703, 179.026 138.784 C 180.599 139.766, 181.005 139.761, 181.022 138.758 C 181.034 138.066, 181.876 138.582, 182.893 139.905 L 184.742 142.309 184.563 139.905 C 184.465 138.582, 184.767 136.980, 185.236 136.345 C 185.704 135.709, 185.933 131.659, 185.745 127.345 L 185.402 119.500 185.201 127.321 M 165.171 127.532 C 165.426 128.784, 166.233 129.385, 167.387 129.183 C 168.471 128.994, 168.936 129.295, 168.541 129.933 C 168.179 130.520, 168.385 131, 169 131 C 169.615 131, 169.812 131.495, 169.438 132.100 C 168.961 132.873, 169.389 132.862, 170.879 132.065 C 172.277 131.317, 173 131.283, 173 131.965 C 173 132.534, 172.532 133, 171.961 133 C 170.040 133, 173.293 135.596, 175.413 135.756 C 177.068 135.881, 177.181 135.726, 175.987 134.971 C 175.169 134.454, 174.988 134.024, 175.583 134.015 C 176.179 134.007, 176.667 132.632, 176.667 130.961 C 176.667 129.289, 176.404 128.277, 176.083 128.711 C 175.263 129.821, 172.642 129.693, 171.765 128.500 C 171.360 127.949, 171.024 128.371, 171.015 129.441 C 171.002 131.123, 170.833 131.183, 169.750 129.892 C 169.063 129.072, 167.661 127.763, 166.635 126.983 C 164.955 125.705, 164.809 125.759, 165.171 127.532 M 173.429 131.886 C 173.429 132.962, 173.954 133.571, 174.651 133.304 C 175.324 133.046, 175.629 132.197, 175.330 131.417 C 174.552 129.390, 173.429 129.668, 173.429 131.886 M 188.965 140 C 188.577 143.757, 188.170 144.471, 186.500 144.324 C 184.526 144.150, 184.525 144.166, 186.446 145.578 C 189.193 147.596, 190.176 146.063, 189.776 140.390 L 189.431 135.500 188.965 140 M 80.750 137.748 C 89.687 137.914, 104.312 137.914, 113.250 137.748 C 122.188 137.582, 114.875 137.447, 97 137.447 C 79.125 137.447, 71.813 137.582, 80.750 137.748 M 129.500 139 C 129.160 139.550, 129.332 140, 129.882 140 C 130.432 140, 131.160 139.550, 131.500 139 C 131.840 138.450, 131.668 138, 131.118 138 C 130.568 138, 129.840 138.450, 129.500 139 M 66.264 139.718 C 67.784 139.947, 70.034 139.941, 71.264 139.704 C 72.494 139.467, 71.250 139.279, 68.500 139.286 C 65.750 139.294, 64.744 139.488, 66.264 139.718 M 84.750 141.732 C 87.087 141.943, 90.912 141.943, 93.250 141.732 C 95.587 141.522, 93.675 141.349, 89 141.349 C 84.325 141.349, 82.412 141.522, 84.750 141.732 M 111.250 141.742 C 114.963 141.934, 121.037 141.934, 124.750 141.742 C 128.463 141.549, 125.425 141.392, 118 141.392 C 110.575 141.392, 107.537 141.549, 111.250 141.742" stroke="none" fill="black" fill-rule="evenodd"/><path d="M 127.803 10.344 C 118.817 12.869, 111.340 19.584, 108.427 27.748 C 106.347 33.577, 106.672 44.677, 109.079 50 C 112.417 57.384, 122.089 65.947, 125.577 64.609 C 126.417 64.287, 126.861 64.417, 126.563 64.898 C 125.054 67.339, 138.570 67.707, 145.316 65.408 C 151.787 63.203, 159.211 56.261, 161.979 49.827 C 165.167 42.415, 164.580 30.371, 160.707 23.763 C 154.142 12.560, 140.182 6.867, 127.803 10.344 M 135.500 11 C 133.870 11.701, 133.812 11.872, 135.191 11.930 C 136.121 11.968, 137.160 11.550, 137.500 11 C 138.211 9.850, 138.176 9.850, 135.500 11 M 126.221 12.558 C 124.997 13.415, 123.622 13.885, 123.165 13.602 C 122.708 13.319, 122.333 13.668, 122.333 14.377 C 122.333 15.086, 122.933 15.667, 123.667 15.667 C 124.400 15.667, 125 15.202, 125 14.633 C 125 14.015, 125.482 14.082, 126.200 14.800 C 126.860 15.460, 127.873 15.993, 128.450 15.985 C 129.028 15.976, 128.825 15.533, 128 15 C 126.752 14.193, 126.836 14.015, 128.500 13.936 C 129.600 13.885, 129.935 13.614, 129.244 13.336 C 128.553 13.057, 128.242 12.418, 128.553 11.915 C 129.358 10.612, 128.765 10.776, 126.221 12.558 M 139.603 12.167 C 139.886 12.625, 139.604 13, 138.976 13 C 138.347 13, 138.021 13.563, 138.250 14.250 C 138.934 16.301, 141.492 15.666, 141.605 13.417 C 141.663 12.271, 141.121 11.333, 140.399 11.333 C 139.678 11.333, 139.320 11.708, 139.603 12.167 M 139.500 14 C 139.160 14.550, 139.359 15, 139.941 15 C 140.523 15, 141 14.550, 141 14 C 141 13.450, 140.802 13, 140.559 13 C 140.316 13, 139.840 13.450, 139.500 14 M 144 13.590 C 144 13.681, 144.761 14.373, 145.692 15.128 C 146.842 16.060, 147.143 16.099, 146.633 15.250 C 145.710 13.714, 147.196 13.596, 148.687 15.087 C 149.470 15.870, 149.989 15.827, 150.542 14.933 C 151.019 14.160, 150.899 13.945, 150.224 14.362 C 149.627 14.731, 148.873 14.604, 148.549 14.080 C 148.088 13.334, 144 12.894, 144 13.590 M 115.037 19.115 C 111.220 22.763, 112.565 24.955, 116.918 22.180 C 119.353 20.628, 119.422 20.633, 118.128 22.267 C 116.952 23.751, 116.971 24, 118.261 24 C 120.329 24, 121.179 20.093, 119.600 17.839 C 118.374 16.089, 118.133 16.156, 115.037 19.115 M 115.677 19.804 C 113.282 22.451, 113.606 23.304, 116.330 21.520 C 117.611 20.680, 119.023 20.332, 119.467 20.746 C 119.911 21.161, 120.072 20.853, 119.824 20.063 C 119.135 17.858, 117.529 17.758, 115.677 19.804 M 153.583 18.865 C 153.244 19.414, 153.987 20.620, 155.233 21.546 L 157.500 23.228 155.249 22.707 C 154.010 22.421, 153.249 22.595, 153.558 23.093 C 153.866 23.592, 154.766 24, 155.559 24 C 156.352 24, 157 24.810, 157 25.800 C 157 27.937, 158.853 30, 160.773 30 C 161.761 30, 161.569 29.268, 160.086 27.382 C 158.954 25.943, 158.254 24.399, 158.530 23.951 C 158.807 23.503, 158.186 22.544, 157.151 21.818 C 156.116 21.093, 155.246 20.125, 155.218 19.667 C 155.131 18.255, 154.233 17.814, 153.583 18.865 M 60.554 21.727 C 54.746 23.205, 46.996 30.566, 48.568 33.111 C 49.037 33.869, 48.885 34.047, 48.153 33.594 C 45.095 31.705, 43.800 47.191, 46.479 53.604 C 47.293 55.551, 48.386 56.879, 48.910 56.556 C 49.433 56.232, 50.158 56.447, 50.520 57.032 C 50.970 57.761, 51.702 57.688, 52.839 56.799 C 54.353 55.615, 54.368 55.667, 53.008 57.394 C 51.612 59.166, 51.677 59.244, 54.008 58.596 C 56.153 58.001, 56.246 58.063, 54.678 59.042 C 53.234 59.944, 52.456 59.818, 50.928 58.435 C 49.822 57.434, 49 57.180, 49 57.839 C 49 59.638, 56.874 64.889, 61.404 66.111 C 69.148 68.200, 79.605 65.380, 84.633 59.847 C 90.811 53.049, 92.418 41.263, 88.247 33.347 C 85.597 28.320, 79.754 23.308, 75 21.985 C 71.400 20.983, 63.997 20.851, 60.554 21.727 M 69.500 23 C 67.789 23.735, 67.941 23.870, 70.550 23.930 C 72.227 23.968, 74.140 24.540, 74.800 25.200 C 75.460 25.860, 76 26.022, 76 25.560 C 76 24.705, 72.909 22.032, 72 22.102 C 71.725 22.123, 70.600 22.527, 69.500 23 M 111 25 C 110.099 25.582, 109.975 25.975, 110.691 25.985 C 111.346 25.993, 112.160 25.550, 112.500 25 C 113.267 23.758, 112.921 23.758, 111 25 M 53.500 27 C 51.741 28.944, 51.753 29, 53.952 29 C 55.585 29, 56.048 29.431, 55.618 30.552 C 55.291 31.406, 55.439 31.847, 55.948 31.532 C 57.558 30.537, 56.737 26.894, 55.035 27.478 C 54.090 27.803, 54.245 27.428, 55.441 26.502 C 56.509 25.676, 56.916 25, 56.346 25 C 55.776 25, 54.495 25.900, 53.500 27 M 153.079 27.583 C 153.127 28.748, 153.364 28.985, 153.683 28.188 C 153.972 27.466, 153.936 26.603, 153.604 26.271 C 153.272 25.939, 153.036 26.529, 153.079 27.583 M 78.500 28 C 78.840 28.550, 79.793 29, 80.618 29 C 81.443 29, 81.859 29.419, 81.543 29.931 C 81.226 30.443, 81.494 31.187, 82.138 31.585 C 82.912 32.063, 83.040 31.873, 82.515 31.025 C 82.013 30.211, 82.167 29.889, 82.936 30.145 C 83.604 30.368, 84.116 30.876, 84.075 31.275 C 84.034 31.674, 84 32.675, 84 33.500 C 84 34.325, 83.213 35.007, 82.250 35.015 C 80.754 35.028, 80.718 35.172, 82 36 C 82.825 36.533, 83.013 36.976, 82.417 36.985 C 81.821 36.993, 81.333 37.675, 81.333 38.500 C 81.333 40.621, 82.993 40.376, 83.032 38.250 C 83.060 36.720, 83.216 36.688, 84.282 38 C 86.103 40.242, 88.852 40.150, 88.255 37.868 C 87.987 36.840, 87.369 36, 86.883 36 C 86.398 36, 86 35.523, 86 34.941 C 86 34.359, 86.520 34.203, 87.155 34.595 C 87.876 35.041, 88.037 34.869, 87.585 34.138 C 87.187 33.494, 86.366 33.274, 85.761 33.648 C 85.057 34.083, 84.886 33.740, 85.285 32.700 C 85.703 31.609, 84.966 30.400, 83.050 29.036 C 80.041 26.893, 77.452 26.304, 78.500 28 M 109.500 28 C 109.160 28.550, 109.359 29, 109.941 29 C 110.523 29, 111 28.550, 111 28 C 111 27.450, 110.802 27, 110.559 27 C 110.316 27, 109.840 27.450, 109.500 28 M 110.500 29.331 C 106.853 33.277, 107.894 40.249, 111.579 36.564 C 112.439 35.704, 112.661 35, 112.071 35 C 111.482 35, 111 34.523, 111 33.941 C 111 33.359, 111.338 33.090, 111.750 33.344 C 112.162 33.598, 112.554 32.274, 112.619 30.403 C 112.685 28.531, 112.685 27.038, 112.619 27.083 C 112.554 27.129, 111.600 28.141, 110.500 29.331 M 52.500 31 C 52.840 31.550, 53.316 32, 53.559 32 C 53.802 32, 54 31.550, 54 31 C 54 30.450, 53.523 30, 52.941 30 C 52.359 30, 52.160 30.450, 52.500 31 M 109 32 C 109 32.550, 109.477 33, 110.059 33 C 110.641 33, 110.840 32.550, 110.500 32 C 110.160 31.450, 109.684 31, 109.441 31 C 109.198 31, 109 31.450, 109 32 M 109 35.559 C 109 36.416, 109.457 36.835, 110.016 36.490 C 110.575 36.144, 110.774 35.443, 110.457 34.931 C 109.600 33.544, 109 33.802, 109 35.559 M 84 35.819 C 84 37.027, 85.897 38.436, 86.591 37.743 C 86.842 37.491, 86.362 36.716, 85.524 36.020 C 84.574 35.231, 84 35.155, 84 35.819 M 161.223 37.428 C 161.334 38.763, 161.750 39.654, 162.149 39.408 C 163.102 38.819, 162.799 35, 161.798 35 C 161.372 35, 161.113 36.093, 161.223 37.428 M 111.711 38.999 C 111.423 40.098, 111.500 41.191, 111.882 41.427 C 112.263 41.663, 112.666 40.763, 112.777 39.428 C 113.020 36.488, 112.429 36.251, 111.711 38.999 M 47.649 39.758 C 47.155 40.558, 46.660 48.969, 47.032 50.250 C 47.152 50.663, 47.306 51.413, 47.375 51.917 C 47.633 53.810, 48.587 53.838, 48.728 51.957 C 48.809 50.881, 48.427 50, 47.879 50 C 47.331 50, 47.193 49.497, 47.573 48.882 C 48.169 47.917, 48.834 38.997, 48.309 38.999 C 48.204 39, 47.907 39.341, 47.649 39.758 M 109 41.167 C 109 42.358, 109.313 43.020, 109.696 42.638 C 110.776 41.557, 110.928 39, 109.912 39 C 109.410 39, 109 39.975, 109 41.167 M 109.526 44.358 C 108.096 45.403, 107.982 45.871, 109.003 46.502 C 109.866 47.035, 110.067 46.918, 109.595 46.155 C 109.203 45.520, 109.386 45, 110.001 45 C 110.678 45, 110.937 46.162, 110.657 47.941 C 110.402 49.558, 110.719 51.601, 111.362 52.480 C 112.310 53.777, 112.526 53.142, 112.503 49.110 C 112.470 43.295, 112.001 42.547, 109.526 44.358 M 84.112 48.964 C 82.695 49.898, 81.249 53.435, 81.541 55.250 C 81.725 56.388, 81.175 57, 79.971 57 C 78.952 57, 77.840 57.450, 77.500 58 C 77.160 58.550, 77.771 59, 78.858 59 C 79.944 59, 81.022 59.337, 81.253 59.750 C 81.483 60.163, 81.541 59.952, 81.380 59.282 C 81.219 58.612, 81.525 57.794, 82.060 57.463 C 82.595 57.132, 82.731 56.373, 82.362 55.776 C 81.971 55.144, 82.154 54.977, 82.802 55.378 C 83.413 55.755, 83.641 56.837, 83.309 57.782 C 82.806 59.214, 82.938 59.283, 84.103 58.200 C 84.871 57.485, 85.556 56.473, 85.625 55.950 C 85.694 55.428, 85.841 54.888, 85.952 54.750 C 86.062 54.612, 86.309 53.678, 86.499 52.673 C 86.735 51.427, 86.392 51.019, 85.423 51.391 C 84.640 51.692, 84 51.449, 84 50.852 C 84 50.254, 85.048 49.967, 86.333 50.213 C 87.650 50.464, 88.667 50.173, 88.667 49.544 C 88.667 48.400, 85.567 48.005, 84.112 48.964 M 153.948 48.968 C 154.970 49.600, 154.953 49.867, 153.863 50.300 C 152.895 50.685, 152.862 50.865, 153.750 50.921 C 154.438 50.964, 155 51.477, 155 52.059 C 155 52.641, 154.625 52.886, 154.167 52.603 C 153.708 52.320, 153.333 52.743, 153.333 53.544 C 153.333 54.345, 153.783 55, 154.333 55 C 154.883 55, 155.003 55.330, 154.600 55.733 C 154.197 56.137, 151.984 56.484, 149.683 56.505 C 145.724 56.541, 145.498 56.703, 145.469 59.521 C 145.452 61.160, 145.037 63.175, 144.547 64 C 143.919 65.057, 144.247 64.983, 145.657 63.750 C 146.757 62.788, 148.320 62, 149.129 62 C 149.938 62, 151.144 61.456, 151.810 60.790 C 152.756 59.844, 152.527 59.291, 150.760 58.249 L 148.500 56.917 151 57.573 C 154.754 58.560, 154.796 58.561, 154.856 57.696 C 154.887 57.254, 155.944 56.015, 157.206 54.944 C 158.578 53.779, 158.849 53.221, 157.881 53.555 C 156.810 53.924, 156.081 53.418, 155.725 52.057 C 155.148 49.849, 156.500 49.173, 157.338 51.250 C 157.630 51.975, 157.875 51.740, 157.921 50.691 C 157.964 49.696, 158.457 49.165, 159.016 49.510 C 159.575 49.856, 159.728 50.670, 159.356 51.319 C 158.984 51.969, 159.065 52.149, 159.535 51.721 C 161.657 49.790, 160.572 48.493, 156.709 48.339 C 154.381 48.246, 153.211 48.512, 153.948 48.968 M 82.667 52.730 C 81.648 54.378, 83.966 55.451, 85.337 53.966 C 86.221 53.009, 86.221 52.863, 85.335 53.360 C 84.695 53.719, 83.990 53.469, 83.768 52.805 C 83.475 51.925, 83.177 51.905, 82.667 52.730 M 119.926 56.389 C 119.147 57.555, 119.321 61.080, 120.184 61.614 C 120.955 62.090, 121.127 61.774, 120.701 60.664 C 120.243 59.470, 120.602 59, 121.972 59 C 124.903 59, 125.295 57.290, 122.488 56.753 C 121.120 56.491, 119.967 56.327, 119.926 56.389 M 146.346 59.261 C 146.450 60.993, 146.855 61.534, 147.592 60.923 C 148.193 60.425, 149.042 60.351, 149.479 60.759 C 149.916 61.166, 150.088 60.904, 149.862 60.175 C 149.635 59.446, 149.062 58.922, 148.587 59.010 C 148.112 59.099, 147.379 58.613, 146.958 57.932 C 146.495 57.183, 146.253 57.709, 146.346 59.261 M 54.531 60.950 C 54.208 61.472, 54.969 62.397, 56.222 63.005 C 58.311 64.019, 58.351 63.990, 56.697 62.656 C 55.342 61.564, 55.218 61.072, 56.197 60.680 C 57.080 60.326, 57.116 60.132, 56.309 60.079 C 55.654 60.036, 54.854 60.427, 54.531 60.950 M 76.500 61 C 76.160 61.550, 76.610 62, 77.500 62 C 78.390 62, 78.840 61.550, 78.500 61 C 78.160 60.450, 77.710 60, 77.500 60 C 77.290 60, 76.840 60.450, 76.500 61 M 123 61.393 C 123 61.609, 123.698 62.054, 124.552 62.382 C 125.442 62.723, 125.843 62.555, 125.493 61.989 C 124.906 61.038, 123 60.583, 123 61.393 M 67 64.393 C 67 64.609, 67.675 65.045, 68.500 65.362 C 69.325 65.678, 70 65.501, 70 64.969 C 70 64.436, 69.325 64, 68.500 64 C 67.675 64, 67 64.177, 67 64.393 M 137.613 65.183 C 137.902 65.650, 138.557 65.774, 139.069 65.457 C 140.377 64.649, 140.230 64.333, 138.544 64.333 C 137.743 64.333, 137.324 64.716, 137.613 65.183 M 188.202 68.570 C 186.675 69.640, 186.212 70.569, 186.820 71.340 C 187.324 71.978, 187.925 79.700, 188.155 88.500 C 188.386 97.300, 188.346 102.475, 188.066 100 C 187.618 96.037, 187.485 96.454, 186.951 103.500 C 186.617 107.900, 186.557 102.680, 186.818 91.899 C 187.147 78.288, 186.957 72.091, 186.195 71.621 C 185.592 71.248, 178.889 75.739, 171.300 81.600 C 158.410 91.554, 152.814 96.226, 155.750 94.582 C 156.438 94.197, 157 94.407, 157 95.048 C 157 95.705, 156.303 95.946, 155.402 95.601 C 153.109 94.721, 145.594 100.806, 146.952 102.443 C 147.674 103.312, 147.551 103.667, 146.528 103.667 C 145.736 103.667, 145.320 103.292, 145.603 102.833 C 146.746 100.984, 144.276 102.219, 140.583 105.344 L 136.666 108.657 160.139 126.701 C 186.445 146.924, 188.077 147.673, 189.100 140 L 189.700 135.500 189.850 140.583 C 190.024 146.478, 189.522 147.307, 186.619 145.912 C 185.252 145.255, 185.564 145.796, 187.500 147.435 L 190.500 149.976 190.770 128.921 C 190.919 117.340, 190.919 98.662, 190.770 87.412 L 190.500 66.960 188.202 68.570 M 189.272 76 C 189.272 78.475, 189.467 79.487, 189.706 78.250 C 189.944 77.013, 189.944 74.987, 189.706 73.750 C 189.467 72.513, 189.272 73.525, 189.272 76 M 62 108.500 L 62 144 98 144 L 134 144 134 108.500 L 134 73 98 73 L 62 73 62 108.500 M 63.792 74.726 C 64.827 75.101, 64.836 75.523, 63.840 76.847 C 62.792 78.240, 62.817 78.303, 63.998 77.250 C 64.769 76.563, 67.185 76, 69.367 76 C 74.632 76, 73.709 75.388, 67.500 74.762 C 64.750 74.485, 63.081 74.469, 63.792 74.726 M 75.441 75.563 C 74.057 76.677, 73.860 77.276, 74.756 77.648 C 75.447 77.936, 75.758 78.582, 75.447 79.085 C 75.136 79.588, 75.359 80, 75.941 80 C 76.523 80, 77 79.362, 77 78.583 C 77 77.804, 77.563 76.940, 78.250 76.662 C 79.211 76.274, 79.198 76.140, 78.191 76.079 C 77.471 76.036, 77.160 75.550, 77.500 75 C 78.384 73.570, 77.676 73.763, 75.441 75.563 M 80 76.239 C 80 77.208, 79.523 78, 78.941 78 C 78.359 78, 78.190 78.498, 78.566 79.107 C 78.942 79.715, 79.531 79.828, 79.875 79.357 C 80.796 78.094, 83 77.842, 83 79 C 83 79.550, 83.389 80, 83.863 80 C 84.338 80, 84.663 78.987, 84.584 77.750 C 84.506 76.513, 84.850 75.213, 85.349 74.862 C 85.849 74.510, 84.849 74.281, 83.129 74.351 C 80.857 74.444, 80 74.961, 80 76.239 M 108.529 74.750 C 94.615 74.944, 87.212 75.421, 86.529 76.168 C 85.816 76.948, 85.838 77.105, 86.600 76.680 C 87.206 76.343, 97.443 76.019, 109.350 75.961 C 121.922 75.900, 131 75.467, 131 74.928 C 131 74.418, 130.662 74.103, 130.250 74.229 C 129.838 74.354, 120.063 74.589, 108.529 74.750 M 180.832 76.469 C 180.214 77.826, 179.374 78.731, 178.967 78.480 C 178.560 78.228, 177.613 78.805, 176.863 79.761 C 175.659 81.297, 175.686 81.355, 177.092 80.259 C 177.968 79.576, 178.985 79.318, 179.352 79.686 C 180.178 80.511, 183.003 76.815, 182.352 75.761 C 182.094 75.342, 182.359 75, 182.941 75 C 184.310 75, 184.296 76.304, 182.913 77.687 C 182.130 78.470, 182.173 78.989, 183.067 79.542 C 183.832 80.014, 184.055 79.899, 183.648 79.240 C 183.285 78.652, 183.521 77.993, 184.174 77.775 C 185.573 77.309, 184.553 74, 183.010 74 C 182.431 74, 181.451 75.111, 180.832 76.469 M 81.469 76.050 C 81.101 76.646, 81.070 77.403, 81.400 77.733 C 81.730 78.063, 82.007 77.696, 82.015 76.917 C 82.028 75.750, 82.202 75.765, 83 77 C 83.582 77.901, 83.975 78.025, 83.985 77.309 C 84.006 75.625, 82.269 74.756, 81.469 76.050 M 129.333 78.571 C 129.333 79.252, 129.933 79.579, 130.667 79.298 C 131.400 79.016, 132 78.459, 132 78.060 C 132 77.660, 131.400 77.333, 130.667 77.333 C 129.933 77.333, 129.333 77.890, 129.333 78.571 M 63.422 80.344 C 63.138 81.083, 63.045 85.020, 63.214 89.094 L 63.522 96.500 64.011 87.748 C 64.498 79.026, 64.400 77.794, 63.422 80.344 M 172.811 82.750 C 171.474 84.312, 171.493 84.662, 172.990 86 C 175.599 88.334, 176.518 88.082, 176.644 84.999 C 176.733 82.821, 176.399 82.294, 175.216 82.747 C 174.202 83.137, 173.920 82.938, 174.395 82.170 C 175.483 80.409, 174.511 80.765, 172.811 82.750 M 189.300 86 C 189.300 89.025, 189.487 90.263, 189.716 88.750 C 189.945 87.237, 189.945 84.763, 189.716 83.250 C 189.487 81.737, 189.300 82.975, 189.300 86 M 173 83.378 C 173 83.585, 173.787 84.373, 174.750 85.128 C 176.336 86.371, 176.371 86.336, 175.128 84.750 C 173.821 83.084, 173 82.555, 173 83.378 M 168.530 85.951 C 168.174 86.528, 168.021 87.033, 168.191 87.074 C 170.075 87.527, 173.280 87.976, 172.939 87.740 C 172.698 87.572, 171.753 86.865, 170.839 86.168 C 169.716 85.313, 168.968 85.243, 168.530 85.951 M 165 88.500 C 165 89.325, 164.518 89.888, 163.929 89.750 C 163.340 89.612, 161.782 90.866, 160.466 92.536 L 158.073 95.573 162.037 95.618 C 164.657 95.649, 166 95.221, 166 94.357 C 166 93.357, 165.379 93.286, 163.361 94.053 C 159.862 95.383, 159.504 94.789, 162.059 91.892 C 163.641 90.097, 164.025 89.950, 163.595 91.302 C 163.193 92.568, 163.391 92.873, 164.261 92.327 C 164.943 91.900, 166.400 91.622, 167.500 91.710 C 169.245 91.850, 169.265 91.803, 167.657 91.344 C 166.428 90.993, 165.981 90.182, 166.314 88.909 C 166.588 87.859, 166.405 87, 165.906 87 C 165.408 87, 165 87.675, 165 88.500 M 167 93.941 C 167 94.459, 167.375 95.114, 167.833 95.397 C 168.292 95.680, 168.667 95.257, 168.667 94.456 C 168.667 93.655, 168.292 93, 167.833 93 C 167.375 93, 167 93.423, 167 93.941 M 151.250 98.559 C 150.563 99.305, 150 100.411, 150 101.017 C 150 101.622, 149.550 101.840, 149 101.500 C 148.450 101.160, 148 101.118, 148 101.406 C 148 101.694, 148.873 102.397, 149.939 102.968 C 151.324 103.709, 152.083 103.675, 152.594 102.848 C 153.038 102.130, 152.871 101.962, 152.155 102.405 C 150.710 103.297, 150.686 102.455, 152.081 99.849 C 153.396 97.392, 152.955 96.708, 151.250 98.559 M 129.158 102 C 129.158 103.375, 129.385 103.938, 129.662 103.250 C 129.940 102.563, 129.940 101.438, 129.662 100.750 C 129.385 100.063, 129.158 100.625, 129.158 102 M 131.058 107.083 C 131.089 108.963, 131.511 112.300, 131.996 114.500 C 132.672 117.574, 132.746 116.880, 132.315 111.500 C 131.718 104.050, 130.962 101.394, 131.058 107.083 M 142.161 109.300 C 143.183 111.210, 144.245 110.940, 144.576 108.685 C 144.677 107.994, 143.950 107.429, 142.960 107.429 C 141.510 107.429, 141.354 107.794, 142.161 109.300 M 147 113 C 148.375 113.440, 148.938 113.845, 148.250 113.900 C 147.563 113.955, 147 114.505, 147 115.122 C 147 115.902, 147.455 115.867, 148.489 115.009 C 150.400 113.423, 149.503 111.972, 146.691 112.100 C 144.651 112.192, 144.673 112.255, 147 113 M 151.356 112.681 C 151.728 113.330, 151.575 114.144, 151.016 114.490 C 149.674 115.319, 149.734 116.255, 151.264 118.347 C 152.373 119.863, 152.527 119.650, 152.514 116.621 C 152.506 114.721, 152.090 112.792, 151.590 112.333 C 151.066 111.854, 150.967 112.002, 151.356 112.681 M 187.618 120 C 187.199 124.675, 187.023 132.100, 187.227 136.500 C 187.548 143.426, 187.645 142.821, 187.949 132 C 188.212 122.637, 188.476 120.629, 189 124 C 189.632 128.064, 189.706 128.161, 189.762 125 C 189.797 123.075, 189.499 119.250, 189.102 116.500 C 188.379 111.503, 188.379 111.505, 187.618 120 M 130.195 117.500 C 130.215 119.150, 130.439 119.704, 130.693 118.731 C 130.947 117.758, 130.930 116.408, 130.656 115.731 C 130.382 115.054, 130.175 115.850, 130.195 117.500 M 63.992 128.205 C 63.721 132.992, 63.858 136.550, 64.295 136.110 C 64.732 135.670, 64.953 131.753, 64.786 127.405 L 64.483 119.500 63.992 128.205 M 155.299 121.860 C 156.117 122.846, 156.535 122.895, 156.820 122.040 C 157.061 121.318, 157.777 121.664, 158.663 122.930 C 159.461 124.068, 160.763 125, 161.557 125 C 163.435 125, 163.430 122.379, 161.551 121.658 C 160.533 121.267, 160.286 121.582, 160.721 122.715 C 161.133 123.789, 160.949 124.087, 160.170 123.605 C 159.526 123.207, 159 122.281, 159 121.547 C 159 120.762, 158.005 120.271, 156.586 120.356 C 154.670 120.470, 154.404 120.781, 155.299 121.860 M 185.201 127.321 C 184.996 135.303, 183.438 139.038, 181.232 136.832 C 180.600 136.200, 179.577 136.137, 178.622 136.672 C 177.245 137.442, 177.295 137.703, 179.026 138.784 C 180.599 139.766, 181.005 139.761, 181.022 138.758 C 181.034 138.066, 181.876 138.582, 182.893 139.905 L 184.742 142.309 184.563 139.905 C 184.465 138.582, 184.767 136.980, 185.236 136.345 C 185.704 135.709, 185.933 131.659, 185.745 127.345 L 185.402 119.500 185.201 127.321 M 165.171 127.532 C 165.426 128.784, 166.233 129.385, 167.387 129.183 C 168.471 128.994, 168.936 129.295, 168.541 129.933 C 168.179 130.520, 168.385 131, 169 131 C 169.615 131, 169.812 131.495, 169.438 132.100 C 168.961 132.873, 169.389 132.862, 170.879 132.065 C 172.277 131.317, 173 131.283, 173 131.965 C 173 132.534, 172.532 133, 171.961 133 C 170.040 133, 173.293 135.596, 175.413 135.756 C 177.068 135.881, 177.181 135.726, 175.987 134.971 C 175.169 134.454, 174.988 134.024, 175.583 134.015 C 176.179 134.007, 176.667 132.632, 176.667 130.961 C 176.667 129.289, 176.404 128.277, 176.083 128.711 C 175.263 129.821, 172.642 129.693, 171.765 128.500 C 171.360 127.949, 171.024 128.371, 171.015 129.441 C 171.002 131.123, 170.833 131.183, 169.750 129.892 C 169.063 129.072, 167.661 127.763, 166.635 126.983 C 164.955 125.705, 164.809 125.759, 165.171 127.532 M 173.429 131.886 C 173.429 132.962, 173.954 133.571, 174.651 133.304 C 175.324 133.046, 175.629 132.197, 175.330 131.417 C 174.552 129.390, 173.429 129.668, 173.429 131.886 M 80.750 137.748 C 89.687 137.914, 104.312 137.914, 113.250 137.748 C 122.188 137.582, 114.875 137.447, 97 137.447 C 79.125 137.447, 71.813 137.582, 80.750 137.748 M 129.500 139 C 129.160 139.550, 129.332 140, 129.882 140 C 130.432 140, 131.160 139.550, 131.500 139 C 131.840 138.450, 131.668 138, 131.118 138 C 130.568 138, 129.840 138.450, 129.500 139 M 66.264 139.718 C 67.784 139.947, 70.034 139.941, 71.264 139.704 C 72.494 139.467, 71.250 139.279, 68.500 139.286 C 65.750 139.294, 64.744 139.488, 66.264 139.718 M 84.750 141.732 C 87.087 141.943, 90.912 141.943, 93.250 141.732 C 95.587 141.522, 93.675 141.349, 89 141.349 C 84.325 141.349, 82.412 141.522, 84.750 141.732 M 111.250 141.742 C 114.963 141.934, 121.037 141.934, 124.750 141.742 C 128.463 141.549, 125.425 141.392, 118 141.392 C 110.575 141.392, 107.537 141.549, 111.250 141.742" stroke="none" fill="black" fill-rule="evenodd"/></svg>